<svg id="Camada_1" data-name="Camada 1" xmlns="http://www.w3.org/2000/svg" viewBox="0 0 200 200"><defs><style>.cls-1{fill:#dbee06;}.cls-2{fill:#fefefe;}.cls-3{fill:#fff;}</style></defs><path class="cls-1" d="M96.18,143.22c.71-5.06,3.47-7.44,8.45-7.44H167c5.35,0,8.33,3,8.33,8.28V191.6c0,2.72-.74,3.46-3.48,3.46H30.61c-2.75,0-3.5-.73-3.5-3.44q0-17.06,0-34.11c0-4.23,2-6.84,6.07-7.95q14.79-4,29.59-7.88c1.09-.28,1.48-.69,1.41-1.83a48.21,48.21,0,0,1,0-5.24,1.68,1.68,0,0,0-1.13-1.86,31.5,31.5,0,0,1-18-23.31,1.4,1.4,0,0,0-1.23-1.26A12.29,12.29,0,0,1,34.52,96.5c-.07-5.68,3.29-10.26,8.94-12.07a1.18,1.18,0,0,0,1-1.39c0-4.57,0-9.15,0-13.73A22.23,22.23,0,0,1,66.79,46.86q9.72,0,19.45,0a22.23,22.23,0,0,1,22.38,22.29q0,6.87,0,13.74c0,.87.17,1.31,1.11,1.6a12.28,12.28,0,0,1-.36,23.65c-.77.22-1.19.46-1.36,1.33-2.11,10.64-8.08,18.36-17.77,23.18-1,.5-1.48,1-1.4,2.16a43.62,43.62,0,0,1,0,5.24c0,.92.22,1.36,1.15,1.57C92,142.1,94.06,142.67,96.18,143.22Z"/><path class="cls-2" d="M76.56,155.53c2.52,0,5,.1,7.56,0A9.61,9.61,0,0,0,93,149.45c.78-1.74.74-1.77-1-2.23-.84-.22-1.71-.37-2.52-.67a1.26,1.26,0,0,0-1.84.64,6.92,6.92,0,0,1-6,3.39c-3.39.06-6.79,0-10.18,0-1.93,0-3.94-.57-4.89-2.18-1.47-2.47-3.22-2-5.22-1.22a3.61,3.61,0,0,1-.89.26c-.9.06-.9.48-.67,1.23a9.92,9.92,0,0,0,9.13,6.85C71.41,155.58,74,155.53,76.56,155.53Z"/><path class="cls-2" d="M71.59,145.64c3.28.05,6.57,0,9.85,0a2.21,2.21,0,0,0,2.42-2.12c.13-2.85,0-5.7,0-8.64a31.47,31.47,0,0,1-14.79,0c0,2.89,0,5.61,0,8.33A2.34,2.34,0,0,0,71.59,145.64Z"/><path class="cls-2" d="M95.18,185.16c-3.7.05-7.41,0-11.11,0s-7.62,0-11.43,0c-.37,0-.89-.31-1.08.45-.66,2.74.63,4.47,3.42,4.47h17.6c3.8,0,3.77,0,3.72-3.87C96.29,185.36,96,185.15,95.18,185.16Z"/><path class="cls-2" d="M39.47,96.18a7.22,7.22,0,0,0,4.93,7V89.39A7.27,7.27,0,0,0,39.47,96.18Z"/><path class="cls-2" d="M108.68,89.51v13.57a7.11,7.11,0,0,0,4.87-7.18A7,7,0,0,0,108.68,89.51Z"/><path class="cls-2" d="M103.7,89.26c0-.9-.64-.8-1.1-1a12.26,12.26,0,0,1-8.35-8.56,17,17,0,0,1-.45-5c0-2.31-.84-3.15-3.16-3.15-4.68,0-9.36,0-14,0H63.94c-4.45,0-4.68.22-4.72,4.68a12.2,12.2,0,0,1-8.79,12c-.94.3-1.11.74-1.1,1.61,0,4.68,0,9.36,0,14a23.63,23.63,0,0,0,.48,4.75c3,14.53,15.64,23.64,30.45,21.9,11.7-1.38,21.8-11.43,23.12-23.11C104.07,101.4,103.52,95.32,103.7,89.26Zm-40,8.16c-.59-1.59-3.3-1.66-3.88-.09-.66,1.76-1.82,1.36-3,1.4-2.84,0-3-.3-1.88-3A7.42,7.42,0,0,1,69,97.58c.13.79.08,1.28-.93,1.16a15,15,0,0,0-2,0C65,98.76,64.2,98.83,63.67,97.42Zm25.09,17.11a6.79,6.79,0,0,1-3.47,4.31C83,120.21,79.93,121,75.87,121a16.3,16.3,0,0,1-8.55-2.39,6.66,6.66,0,0,1-3-3.92c-.18-.7-.23-1.18.76-1.12s2.16,0,3.24,0a1.54,1.54,0,0,1,1,.27c4.1,3,10.21,2.88,14.54.05,1.38-.91,3.19-.26,4.8-.25C89.07,113.63,88.83,114.22,88.76,114.53Zm9-15.79a11.31,11.31,0,0,0-1.54,0c-1.2,0-2.31.29-3-1.44s-3.34-1.35-4,.44a1.36,1.36,0,0,1-1.68,1c-.51,0-1,0-1.54,0-2.31,0-2.4-.14-1.64-2.39a7.43,7.43,0,0,1,14.37,1.25C98.82,98.4,98.73,98.87,97.74,98.74Z"/><path class="cls-2" d="M170.4,143.85c0-2.32-.84-3.17-3.14-3.17h-62.8c-2.41,0-3.22.82-3.22,3.25,0,14.92,0,29.83,0,44.74,0,1.12.21,1.45,1.4,1.44,11-.05,22.11,0,33.17,0s22.11,0,33.17,0c1,0,1.49-.08,1.48-1.36C170.38,173.78,170.41,158.81,170.4,143.85Zm-59.19,41.29c-2.56,0-2.56,0-2.56-2.53s0-2.41,2.38-2.41c2.56,0,2.56,0,2.56,2.53S113.59,185.14,111.21,185.14Zm10,0c-2.65,0-2.65,0-2.65-2.6,0-2.34,0-2.34,2.3-2.34,2.64,0,2.64,0,2.64,2.6C123.47,185.14,123.47,185.14,121.18,185.14Zm9.86,0c-2.63,0-2.63,0-2.63-2.62,0-2.32,0-2.32,2.31-2.32,2.63,0,2.63,0,2.63,2.62C133.35,185.14,133.35,185.14,131,185.14Zm4.63-14.82a4.94,4.94,0,1,1,5.09-4.86A5,5,0,0,1,135.67,170.32Zm5,14.82c-2.4,0-2.4,0-2.4-2.39,0-2.55,0-2.55,2.55-2.55,2.39,0,2.39,0,2.39,2.39C143.23,185.14,143.23,185.14,140.69,185.14Zm10,0c-2.52,0-2.52,0-2.52-2.58,0-2.36,0-2.36,2.43-2.36s2.51,0,2.51,2.58C153.11,185.14,153.11,185.14,150.69,185.14Zm9.87,0c-2.5,0-2.5,0-2.5-2.44s0-2.5,2.59-2.5c2.35,0,2.35,0,2.35,2.44S163,185.14,160.56,185.14Z"/><path class="cls-1" d="M88.69,36a17.11,17.11,0,0,0-3.2-.23,41.93,41.93,0,0,0-9.31,1.28c-.43.1-.63,0-.79-.42C74.23,33.27,73,29.9,71.85,26.52L65.7,9.12c-.25-.72-.48-1.45-.78-2.15a3.46,3.46,0,0,0-3.17-2,16.1,16.1,0,0,0-5.57.52A61.73,61.73,0,0,0,44.3,9.82,71.56,71.56,0,0,0,30,18.44a18.07,18.07,0,0,0-4.56,4.83c-.71,1.18-1.13,2.45-.34,3.76.56.93,1.21,1.81,1.82,2.72q3.93,5.79,7.85,11.6C37.39,45.22,40,49.1,42.62,53c.38.55.3.79-.17,1.18A39.25,39.25,0,0,0,36,60.72c-1.76,2.39-3.28,4.87-2.57,8l.71,1.41a5.62,5.62,0,0,0,3.36,2.22,18.12,18.12,0,0,0,6.56.46,50.05,50.05,0,0,0,10.15-2,87.25,87.25,0,0,0,13.25-5.13C69.26,64.91,71,64,72.72,63c1.47-.85,3-1.68,4.4-2.59a68.54,68.54,0,0,0,9.66-7.21A28.41,28.41,0,0,0,93.52,45a6.36,6.36,0,0,0,.68-5.09l-.65-1.29A7.24,7.24,0,0,0,88.69,36Z"/><path class="cls-3" d="M74.54,42.08c.45,1.28.94,2.63,1.4,4a1.31,1.31,0,0,1-.41,1.43,47.13,47.13,0,0,1-13.69,9.09,50.1,50.1,0,0,1-10.21,3,1.46,1.46,0,0,1-1.87-.79L47.6,55.66A54.24,54.24,0,0,0,74.54,42.08Z"/><path class="cls-3" d="M65.55,32.38,64,28,61.79,21.7c-.33-.92-.66-1.84-1-2.77a1.32,1.32,0,0,1,.78-1.72,1.43,1.43,0,0,1,1.72.94c1.22,3.48,2.46,7,3.69,10.45.35,1,.7,2,1,3a1.38,1.38,0,0,1-.67,1.83C66.68,33.69,66,33.37,65.55,32.38Z"/><path class="cls-3" d="M69.61,36.64a1.31,1.31,0,1,1-1.75-.6A1.39,1.39,0,0,1,69.61,36.64Z"/></svg>