<svg width="20" height="20" viewBox="0 0 75 74" fill="none" xmlns="http://www.w3.org/2000/svg">
<path d="M0 15.9975C0.386718 15.1119 1.11568 14.644 1.9916 14.2843C13.3044 9.61146 24.6114 4.92316 35.9125 0.219381C36.7691 -0.1364 37.5252 -0.0261852 38.3392 0.312193C48.0883 4.37015 57.8414 8.42102 67.5983 12.4648C69.1935 13.128 70.7887 13.7951 72.3916 14.439C73.5015 14.8856 74.0545 15.6649 74.0255 16.883C73.9965 18.1012 74.0255 19.3387 74.0255 20.5685C74.0255 22.2468 73.1825 23.0821 71.4867 23.0821H12.8777C9.55193 23.0821 6.22809 23.0377 2.90425 23.1034C1.56041 23.1305 0.583944 22.7302 0.00386717 21.4927L0 15.9975Z" fill="#22192C"/>
<path d="M0 66.5917C0.375116 65.9266 0.785037 65.2962 1.4966 64.9269C1.91622 64.6958 2.38655 64.5722 2.86558 64.5673C25.7206 64.575 48.5769 64.575 71.4345 64.5673C72.7107 64.5673 73.9733 65.7738 74.0042 67.0964C74.041 68.6858 74.0275 70.2752 74.0042 71.8646C73.9907 72.9339 73.2734 73.5082 72.4226 73.9626H1.58941C0.727029 73.7692 0.158554 73.2742 0 72.3732V66.5917Z" fill="#22192C"/>
<path d="M17.8552 38.6204C17.8552 42.1338 17.8416 45.649 17.8668 49.1624C17.8668 49.696 17.7527 49.8449 17.1977 49.8391C14.0202 49.8082 10.8433 49.8082 7.66709 49.8391C7.11409 49.8391 6.99614 49.696 6.99807 49.1643C7.01741 42.1351 7.01741 35.1097 6.99807 28.0882C6.99807 27.5545 7.11215 27.4056 7.66709 27.4114C10.8433 27.4424 14.0202 27.4424 17.1977 27.4114C17.7508 27.4114 17.8706 27.5526 17.8668 28.0862C17.8416 31.5918 17.8552 35.1052 17.8552 38.6204Z" fill="#22192C"/>
<path d="M56.1606 38.6205C56.1606 35.1071 56.1722 31.5919 56.149 28.0785C56.149 27.5449 56.2631 27.396 56.8161 27.4018C59.9923 27.4327 63.1699 27.4327 66.3487 27.4018C66.9017 27.4018 67.0196 27.5429 67.0177 28.0766C66.9984 35.1058 66.9984 42.1344 67.0177 49.1624C67.0177 49.6961 66.9036 49.8449 66.3487 49.8391C63.1712 49.8082 59.9943 49.8082 56.818 49.8391C56.265 49.8391 56.1451 49.698 56.149 49.1643C56.1722 45.649 56.1606 42.1377 56.1606 38.6205Z" fill="#22192C"/>
<path d="M43.5081 39.2547C43.5197 40.8364 42.638 41.8206 41.4334 41.8708C40.2287 41.9211 39.2755 41.0181 39.1769 39.7303C39.0744 38.3768 38.1308 37.4758 36.8991 37.5396C36.3413 37.5741 35.8178 37.8202 35.4354 38.2278C35.053 38.6353 34.8407 39.1735 34.8418 39.7323C34.8572 40.933 35.7931 41.8206 37.0983 41.8747C40.2113 42.0042 42.7675 44.0925 43.3631 46.989C43.9973 50.0828 42.5258 52.9716 39.5945 54.3231C39.2503 54.4817 39.1421 54.6654 39.1691 55.0231C39.2012 55.3586 39.1875 55.6968 39.1285 56.0286C39.0227 56.5528 38.7278 57.0199 38.2999 57.3408C37.8721 57.6617 37.3411 57.814 36.8082 57.7688C35.7177 57.6624 34.8089 56.7595 34.8746 55.6418C34.9191 54.7969 34.6136 54.4353 33.8846 54.0428C31.7287 52.8826 30.6169 50.9858 30.5183 48.5359C30.4962 48.2464 30.5328 47.9553 30.6259 47.6803C30.719 47.4052 30.8666 47.1518 31.06 46.9351C31.2533 46.7185 31.4884 46.5431 31.7512 46.4194C32.0139 46.2958 32.299 46.2265 32.5891 46.2156C33.7996 46.1673 34.747 47.0664 34.8456 48.3561C34.9462 49.698 35.8975 50.6106 37.1234 50.5468C37.681 50.5104 38.2037 50.2627 38.5849 49.8542C38.9661 49.4457 39.1771 48.9071 39.1749 48.3484C39.1575 47.1399 38.2314 46.262 36.9165 46.2079C33.8228 46.0803 31.2453 43.9823 30.6536 41.0916C30.329 39.6338 30.5207 38.1085 31.1961 36.7764C31.8715 35.4443 32.9886 34.3881 34.3564 33.7884C34.7625 33.5951 34.8727 33.3901 34.8476 32.9879C34.8199 32.6523 34.8401 32.3144 34.9075 31.9844C35.0261 31.4759 35.324 31.0273 35.7467 30.7208C36.1693 30.4142 36.6883 30.2704 37.2085 30.3157C38.2971 30.4201 39.2175 31.3231 39.1421 32.4427C39.0879 33.307 39.4224 33.655 40.1359 34.0379C41.1071 34.5341 41.9303 35.2776 42.5224 36.1936C43.1144 37.1095 43.4544 38.1654 43.5081 39.2547Z" fill="#22192C"/>
<path d="M12.4329 60.6653C9.85547 60.6653 7.27993 60.6518 4.69859 60.6769C4.21519 60.6769 4.09144 60.5435 4.10498 60.0775C4.13592 58.898 4.10498 57.7166 4.11852 56.5371C4.13785 55.0231 5.00216 54.1646 6.50263 54.1626C10.4523 54.1626 14.402 54.1626 18.3517 54.1626C19.8502 54.1626 20.7164 55.0211 20.7377 56.5351C20.7551 57.7146 20.7203 58.8961 20.7512 60.0755C20.7628 60.5377 20.6468 60.6827 20.1596 60.6788C17.586 60.6518 15.0046 60.6653 12.4329 60.6653Z" fill="#22192C"/>
<path d="M61.5114 60.6653C58.9571 60.6653 56.4048 60.6518 53.8525 60.6788C53.3652 60.6788 53.2472 60.5377 53.2608 60.0755C53.2917 58.8961 53.2608 57.7146 53.2743 56.5351C53.2937 55.0211 54.158 54.1646 55.6604 54.1626C59.6088 54.1626 63.5578 54.1626 67.5075 54.1626C68.9789 54.1626 69.8606 55.0076 69.8916 56.4655C69.9167 57.6682 69.8761 58.8728 69.907 60.0775C69.9186 60.5435 69.7968 60.6827 69.3134 60.6769C66.7128 60.6518 64.1179 60.6653 61.5114 60.6653Z" fill="#22192C"/>
<path d="M37.0145 16.5756C32.7271 16.5756 28.441 16.5756 24.1562 16.5756C22.4372 16.5756 21.337 14.9998 22.0292 13.5283C22.4469 12.635 23.1894 12.2386 24.1794 12.2386C28.3946 12.2463 32.6085 12.2463 36.8212 12.2386C41.1795 12.2386 45.5378 12.2386 49.8961 12.2386C51.5686 12.2386 52.6611 13.8009 52.0056 15.2531C51.588 16.1812 50.8184 16.5776 49.8013 16.5756C45.5384 16.5692 41.2761 16.5692 37.0145 16.5756Z" fill="#FEFEFE"/>
</svg>
