<svg id="Camada_1" data-name="Camada 1" xmlns="http://www.w3.org/2000/svg" viewBox="0 0 200 200"><defs><style>.cls-1{fill:#fefefe;}.cls-2{fill:#b0c4de;}</style></defs><path class="cls-1" d="M44.87,86.11V99.57c-2.62-.51-4.77-3.36-4.86-6.43A7,7,0,0,1,44.87,86.11Z"/><path class="cls-2" d="M67,54.85c0-2.9,0-5.62,0-8.35a2.58,2.58,0,0,1,4.65-1.91c1.48,1.51,3,3,4.45,4.5.59.63,1,.69,1.57,0,1.4-1.5,2.9-2.91,4.34-4.39.91-.94,1.87-1.62,3.26-1s1.53,1.66,1.51,2.93c0,2.67,0,5.34,0,8.13,2.11-.45,4-1.34,6.13-1.5A14.78,14.78,0,0,1,109,68q.06,5.86,0,11.73a1.18,1.18,0,0,0,1,1.36,12.3,12.3,0,0,1-.44,23.75,1.4,1.4,0,0,0-1.16,1.33,31.61,31.61,0,0,1-17.82,23.15,2,2,0,0,0-1.35,2.18,51.19,51.19,0,0,1,0,5.4c0,.85.29,1.16,1,1.34,2.09.51,4.16,1.07,6.3,1.63.41-3.79,2.26-6.36,6-7.27a9.05,9.05,0,0,1,2.15-.16h62.83c5.1,0,8.11,3,8.11,8.18v47.7c0,2.63-.77,3.4-3.39,3.4H30.93c-2.64,0-3.41-.76-3.41-3.37q0-17.13,0-34.27,0-6.21,6-7.83c9.86-2.65,19.71-5.31,29.59-7.89,1.19-.31,1.54-.76,1.47-1.94a51.07,51.07,0,0,1,0-5.25,1.57,1.57,0,0,0-1.08-1.73,31.38,31.38,0,0,1-17.84-22.23,3.09,3.09,0,0,0-2.45-2.7,12.27,12.27,0,0,1,.3-23.31c1-.31,1.34-.68,1.32-1.75-.07-4.79-.05-9.58,0-14.36,0-9,7.89-14.76,16.47-12.07C63.13,53.56,65,54.18,67,54.85Z"/><path class="cls-1" d="M104.09,94.3c0,4.72.23,9.45-1.21,14.07A27.15,27.15,0,0,1,50,103.82c-.7-5.84-.13-11.72-.29-17.58,0-.77.36-.79.93-.78,1.34,0,2.68,0,4,0a5,5,0,0,0,4.93-4.58c.23-2.1,1-2.82,3-2.82q14.28,0,28.55,0c2,0,2.81.76,3,2.7a5,5,0,0,0,5.12,4.7,25.55,25.55,0,0,0,3.39,0c1.24-.14,1.42.37,1.39,1.46C104,89.36,104.09,91.83,104.09,94.3Z"/><path class="cls-1" d="M69.51,131.54a38.18,38.18,0,0,0,7.43.87,39.26,39.26,0,0,0,7.39-.86c0,2.33,0,4.58,0,6.84a1.81,1.81,0,0,1-.54,1.21c-2.06,2.56-4.14,5.1-6.13,7.71-.65.85-.94.71-1.52,0-2-2.59-4.08-5.14-6.13-7.7a1.65,1.65,0,0,1-.52-1.07C69.52,136.2,69.51,133.89,69.51,131.54Z"/><path class="cls-1" d="M62.1,161.63c0-5.83,0-11.27,0-16.71,0-.89.24-1.2,1.14-1.58,2.14-.89,3.49-.44,4.78,1.51,1.46,2.22,3.28,4.2,5,6.28.29.36.65.64.09,1.12C69.46,155.29,65.9,158.36,62.1,161.63Z"/><path class="cls-1" d="M91.74,161.61c-3.77-3.23-7.3-6.26-10.85-9.28-.43-.37-.47-.63-.08-1.11,2.17-2.66,4.31-5.35,6.45-8.05a1,1,0,0,1,1.15-.39c3.32.67,3.33.64,3.33,4Z"/><path class="cls-1" d="M84.32,181.8c3.76,0,7.52,0,11.27,0,.87,0,1.1.22,1.11,1.1,0,3.86.08,3.86-3.73,3.86H75.38c-2.78,0-4.09-1.76-3.41-4.47.19-.76.71-.45,1.08-.45C76.81,181.79,80.57,181.8,84.32,181.8Z"/><path class="cls-1" d="M109.08,86A7.26,7.26,0,0,1,114,93.41a6.79,6.79,0,0,1-4.87,6.2Z"/><path class="cls-1" d="M43.56,85.87c-6.47,2-6.35,12,0,13.58Z"/><path class="cls-1" d="M76.68,176.86c-.94-.15-2.51.54-3.11-.3-.5-.68.1-2.14.21-3.26s-.2-3,.62-3.62,2.45-.12,3.71-.25,1.7.21,1.73,1.5a38.29,38.29,0,0,0,.52,4.88c.15.94-.19,1.13-1,1.06S77.7,176.86,76.68,176.86Z"/><path class="cls-1" d="M74.45,160.92a7.94,7.94,0,0,0,0-1.69c-.4-1.87,1.07-2.55,2.14-3.5a.46.46,0,0,1,.68,0c1.07,1,2.46,1.6,2.18,3.5a26.55,26.55,0,0,0,0,4.46c0,.66-.17,1-.85.85a3.53,3.53,0,0,0-.46,0C74.45,164.54,74.45,164.54,74.45,160.92Z"/><path class="cls-2" d="M76.87,117.6a17.09,17.09,0,0,1-9.21-2.45,6.55,6.55,0,0,1-3-4c-.16-.63-.21-1.1.7-1a13.43,13.43,0,0,1,5.51,1.06c4.37,2.18,9,2.23,13.25-.73a16.7,16.7,0,0,1,5-.25c.32.3.12.66,0,1a6.72,6.72,0,0,1-3.38,4.19A17.62,17.62,0,0,1,76.87,117.6Z"/><path class="cls-2" d="M57.07,95.35c-2.75,0-2.88-.19-1.82-2.77A7.43,7.43,0,0,1,63,88a7.57,7.57,0,0,1,6.45,6.34c.11.77,0,1.13-.91,1a16.19,16.19,0,0,0-2.31,0c-.94,0-1.61,0-2.06-1.16-.63-1.69-3.32-1.9-4-.28C59.5,95.71,58.29,95.29,57.07,95.35Z"/><path class="cls-2" d="M96.37,95.35a2.28,2.28,0,0,1-2.81-1.51c-.74-1.58-3.28-1.25-4,.45a1.46,1.46,0,0,1-1.79,1.07c-.61-.06-1.23,0-1.85,0-1.83,0-1.83,0-1.4-1.73a7.38,7.38,0,0,1,14.34-.07c.46,1.8.46,1.8-1.31,1.8Z"/><path class="cls-1" d="M170.78,140.51c0-2.32-.85-3.17-3.15-3.17h-62.8c-2.4,0-3.21.82-3.21,3.25,0,14.91,0,29.83,0,44.74,0,1.12.21,1.44,1.4,1.44,11.06-.06,22.11,0,33.17,0s22.12,0,33.17,0c1,0,1.49-.08,1.48-1.36C170.76,170.44,170.78,155.47,170.78,140.51ZM111.59,181.8c-2.57,0-2.57,0-2.57-2.54s0-2.4,2.38-2.4c2.56,0,2.56,0,2.56,2.53S114,181.8,111.59,181.8Zm10,0c-2.64,0-2.64,0-2.64-2.6,0-2.34,0-2.34,2.29-2.34,2.65,0,2.65,0,2.65,2.6C123.85,181.8,123.85,181.8,121.55,181.8Zm9.86,0c-2.62,0-2.62,0-2.62-2.62,0-2.32,0-2.32,2.31-2.32,2.63,0,2.63,0,2.63,2.62C133.73,181.8,133.73,181.8,131.41,181.8ZM136,167a4.94,4.94,0,1,1,5.09-4.85A5,5,0,0,1,136,167Zm5,14.83c-2.39,0-2.39,0-2.39-2.39,0-2.55,0-2.55,2.54-2.55s2.4,0,2.4,2.39C143.61,181.8,143.61,181.8,141.06,181.8Zm10,0c-2.51,0-2.51,0-2.51-2.58,0-2.36,0-2.36,2.42-2.36s2.52,0,2.52,2.58C153.49,181.8,153.49,181.8,151.06,181.8Zm9.87,0c-2.5,0-2.5,0-2.5-2.44s0-2.5,2.59-2.5c2.35,0,2.35,0,2.35,2.44S163.37,181.8,160.93,181.8Z"/><path class="cls-2" d="M88.29,39.4a17.18,17.18,0,0,0-3.2-.23,41.77,41.77,0,0,0-9.31,1.28c-.44.1-.63,0-.8-.42-1.16-3.38-2.35-6.75-3.54-10.13q-3.06-8.7-6.14-17.4c-.26-.72-.48-1.45-.78-2.15a3.47,3.47,0,0,0-3.17-2,16.16,16.16,0,0,0-5.58.52,61.58,61.58,0,0,0-11.88,4.3A71.33,71.33,0,0,0,29.6,21.82,18.23,18.23,0,0,0,25,26.65c-.71,1.18-1.13,2.45-.34,3.76.56.93,1.22,1.81,1.83,2.72l7.84,11.6c2.61,3.87,5.2,7.75,7.85,11.6.38.55.29.79-.17,1.18a38.49,38.49,0,0,0-6.42,6.59c-1.76,2.39-3.28,4.88-2.57,8.05l.71,1.41a5.59,5.59,0,0,0,3.35,2.22,18.17,18.17,0,0,0,6.57.46,50.19,50.19,0,0,0,10.15-2,86.73,86.73,0,0,0,13.24-5.13c1.78-.85,3.53-1.75,5.23-2.73,1.48-.85,3-1.68,4.41-2.59a68.45,68.45,0,0,0,9.65-7.21,28.45,28.45,0,0,0,6.75-8.21,6.4,6.4,0,0,0,.68-5.09L93.15,42A7.26,7.26,0,0,0,88.29,39.4Z"/><path class="cls-1" d="M74.14,45.46c.45,1.28.94,2.63,1.4,4a1.31,1.31,0,0,1-.42,1.43A47,47,0,0,1,61.44,60a50,50,0,0,1-10.22,3,1.46,1.46,0,0,1-1.87-.79L47.2,59A54.28,54.28,0,0,0,74.14,45.46Z"/><path class="cls-1" d="M65.14,35.76c-.47-1.35-1-2.84-1.53-4.34-.75-2.11-1.49-4.23-2.23-6.34-.32-.92-.66-1.84-1-2.77a1.31,1.31,0,0,1,.78-1.72,1.42,1.42,0,0,1,1.71.94L66.61,32c.35,1,.71,2,1,3A1.4,1.4,0,0,1,67,36.77C66.28,37.07,65.62,36.75,65.14,35.76Z"/><path class="cls-1" d="M69.2,40a1.31,1.31,0,1,1-1.74-.6A1.39,1.39,0,0,1,69.2,40Z"/></svg>