<svg id="Camada_1" data-name="Camada 1" xmlns="http://www.w3.org/2000/svg" viewBox="0 0 200 200"><defs><style>.cls-1{fill:#fefefe;}.cls-2{fill:#fff;}</style></defs><path d="M62.31,50.44c1-1.43,1.79-2.71,2.68-4,1.32-1.85,3.21-1.85,4.53,0,.88,1.25,1.71,2.53,2.68,4,.71-1.06,1.41-1.94,1.93-2.91,1.67-3.1,4.12-3.42,6,.06.52.93,1.18,1.78,1.9,2.86.93-1.39,1.76-2.66,2.63-3.9,1.36-1.94,3.26-1.94,4.62,0C90.18,47.76,91,49,92,50.45c.91-1.37,1.77-2.61,2.58-3.88a2.63,2.63,0,0,1,2.79-1.5c1.27.24,1.79,1.17,2.11,2.37,2.93,11.05,5.92,22.1,8.82,33.16a2.43,2.43,0,0,0,2,2.08,12.23,12.23,0,0,1,.23,23.46,2.44,2.44,0,0,0-2,2.19,31.58,31.58,0,0,1-17.72,22.52,1.87,1.87,0,0,0-1.31,2.06,48.21,48.21,0,0,1,0,5.24c-.06,1,.23,1.44,1.23,1.66,2,.44,4,1,6,1.55.44-.29.23-.75.29-1.11a7.45,7.45,0,0,1,7.47-6.3q32,0,64.06,0a7.31,7.31,0,0,1,7.44,7.43q0,24.47,0,48.93c0,2.09-.94,2.9-3.26,2.9H31.27c-2.83,0-3.54-.71-3.54-3.55v-34c0-4.27,1.95-6.86,6-8,9.86-2.65,19.72-5.31,29.6-7.89,1.07-.29,1.51-.64,1.44-1.81-.11-1.84-.07-3.7,0-5.55a1.36,1.36,0,0,0-1-1.48c-9.53-4.58-15.59-12-17.95-22.33A3.1,3.1,0,0,0,43.42,106a12.23,12.23,0,0,1,.68-23.36,2.34,2.34,0,0,0,1.88-2c2.93-11.11,5.92-22.21,8.87-33.32.33-1.27.95-2.16,2.31-2.31a2.41,2.41,0,0,1,2.34,1.21Z"/><path class="cls-1" d="M45,88.38c0-.73-.15-.88-.87-.55a7.51,7.51,0,0,0-4.07,6.88A7.08,7.08,0,0,0,45,101.26C45,96.88,45,92.63,45,88.38Z"/><path class="cls-1" d="M114.18,94.51a7.27,7.27,0,0,0-4.82-6.92v13.65A7.12,7.12,0,0,0,114.18,94.51Z"/><path class="cls-1" d="M50,96.42c.1,3.08-.28,6.74.45,10.36,2.94,14.52,15.67,23.7,30.43,21.95A27,27,0,0,0,104,105.51c.68-5.89.14-11.82.31-17.72,0-.79-.38-.79-.95-.78-1.39,0-2.78,0-4.16,0a5,5,0,0,1-4.77-4.43c-.29-2.39-.93-3-3.37-3q-14,0-28.08,0c-2.19,0-2.92.67-3.16,2.86a5,5,0,0,1-5,4.54,31.94,31.94,0,0,1-3.39,0c-1.14-.09-1.61.16-1.54,1.45C50.05,90.91,50,93.39,50,96.42Zm34.75-1.08a7.45,7.45,0,0,1,7.18-5.85,7.36,7.36,0,0,1,7.22,5.58c.47,1.83.47,1.83-1.43,1.83H96.35a2,2,0,0,1-2.46-1.37c-.71-1.69-3.33-1.46-4.07.28-.4.92-.84,1.22-1.77,1.1a8.67,8.67,0,0,0-2.16,0C84.45,97.12,84.44,96.44,84.71,95.34Zm-.31,16.72c1.4-.93,3.19-.24,4.79-.29.5,0,.26.58.2.88a6.17,6.17,0,0,1-2.67,3.82C83.1,119,79,119.39,74.79,119a14.46,14.46,0,0,1-6.94-2.3A6.89,6.89,0,0,1,65,113.16c-.36-1.08-.28-1.68,1.07-1.45a11.76,11.76,0,0,0,1.49,0c1.13-.22,2.17.49,3.39,1C75.48,114.78,80,115,84.4,112.06ZM55.17,95a7.4,7.4,0,0,1,14.37.28c.3,1.18.22,1.87-1.25,1.63a7.64,7.64,0,0,0-1.07,0c-1.19-.05-2.32.34-3-1.41s-3.36-1.36-4.12.5c-.31.77-.66,1-1.42.92a19,19,0,0,0-2,0C54.67,96.9,54.67,96.9,55.17,95Z"/><path class="cls-1" d="M84.38,142.59a85.88,85.88,0,0,0,.07-9.5,36,36,0,0,1-7.25.86,36,36,0,0,1-7.47-.87c0,2.87,0,5.59,0,8.31a7.44,7.44,0,0,0,6.72,7.35A7.2,7.2,0,0,0,84.38,142.59Z"/><path class="cls-1" d="M78.79,153.57a10.35,10.35,0,0,1-4.13-.12V177c0,4.05,0,4,4,3.86.76,0,.92-.27.92-1q0-12.78,0-25.58C79.61,153.76,79.61,153.4,78.79,153.57Z"/><path class="cls-1" d="M95.8,183.32c-3.75.05-7.51,0-11.26,0s-7.52,0-11.27,0c-.38,0-.9-.31-1.09.45-.68,2.72.63,4.47,3.41,4.47h17.6c3.8,0,3.77,0,3.73-3.86C96.91,183.54,96.67,183.31,95.8,183.32Z"/><path class="cls-1" d="M63.54,168.5c-4.93.05-9.87,0-14.81,0-3.81,0-3.78,0-3.73,3.86,0,.87.24,1.12,1.11,1.1,2.93,0,5.86,0,8.79,0h6.18c3.75,0,3.71,0,3.73-3.7C64.82,168.75,64.55,168.49,63.54,168.5Z"/><path class="cls-1" d="M95.86,168.51q-2.7.06-5.4,0c-.68,0-1,.09-1,.89-.18,4.06-.21,4.06,3.84,4.06,3.63,0,3.63,0,3.59-3.66a1.51,1.51,0,0,1,0-.3C97.06,168.63,96.61,168.49,95.86,168.51Z"/><path class="cls-1" d="M171.05,142.05c0-2.32-.85-3.16-3.15-3.16H105.1c-2.4,0-3.21.82-3.21,3.25,0,14.92,0,29.83,0,44.74,0,1.12.21,1.45,1.4,1.44,11.06-.05,22.11,0,33.17,0s22.12,0,33.17,0c1,0,1.49-.08,1.49-1.36C171,172,171.05,157,171.05,142.05Zm-59.19,41.29c-2.56,0-2.56,0-2.56-2.53s0-2.41,2.37-2.41c2.57,0,2.57,0,2.57,2.53S114.24,183.34,111.86,183.34Zm10,0c-2.64,0-2.64,0-2.64-2.6,0-2.34,0-2.34,2.29-2.34,2.65,0,2.65,0,2.65,2.6C124.12,183.34,124.12,183.34,121.82,183.34Zm9.87,0c-2.63,0-2.63,0-2.63-2.62,0-2.32,0-2.32,2.31-2.32,2.63,0,2.63,0,2.63,2.62C134,183.34,134,183.34,131.69,183.34Zm4.62-14.82a4.94,4.94,0,1,1,5.09-4.86A5,5,0,0,1,136.31,168.52Zm5,14.82c-2.39,0-2.39,0-2.39-2.39,0-2.55,0-2.55,2.54-2.55s2.4,0,2.4,2.39C143.88,183.34,143.88,183.34,141.33,183.34Zm10,0c-2.51,0-2.51,0-2.51-2.58,0-2.36,0-2.36,2.42-2.36s2.52,0,2.52,2.58C153.76,183.34,153.76,183.34,151.33,183.34Zm9.87,0c-2.5,0-2.5,0-2.5-2.44s0-2.5,2.59-2.5c2.35,0,2.35,0,2.35,2.44S163.64,183.34,161.2,183.34Z"/><path d="M88.07,37.86a17.18,17.18,0,0,0-3.2-.23,41.85,41.85,0,0,0-9.31,1.28c-.44.1-.63.05-.79-.42-1.16-3.38-2.36-6.75-3.55-10.13q-3.06-8.7-6.14-17.4c-.26-.72-.48-1.45-.78-2.15a3.47,3.47,0,0,0-3.17-2,16.18,16.18,0,0,0-5.58.52,61.88,61.88,0,0,0-11.87,4.29,71.64,71.64,0,0,0-14.3,8.62,18.51,18.51,0,0,0-4.56,4.82c-.71,1.19-1.12,2.46-.33,3.77.56.93,1.21,1.81,1.82,2.72l7.84,11.6c2.62,3.87,5.21,7.75,7.85,11.6.38.55.3.79-.17,1.18a38.86,38.86,0,0,0-6.42,6.59c-1.76,2.39-3.28,4.87-2.57,8L33.55,72a5.59,5.59,0,0,0,3.35,2.22,18.41,18.41,0,0,0,6.57.46,50.75,50.75,0,0,0,10.15-2,85.75,85.75,0,0,0,13.24-5.14c1.78-.84,3.53-1.74,5.24-2.72,1.47-.85,3-1.68,4.4-2.59a67.88,67.88,0,0,0,9.65-7.21,28.45,28.45,0,0,0,6.75-8.21,6.4,6.4,0,0,0,.68-5.09l-.65-1.29A7.26,7.26,0,0,0,88.07,37.86Z"/><path class="cls-2" d="M73.92,43.92c.45,1.28.94,2.63,1.4,4a1.33,1.33,0,0,1-.41,1.43,47.13,47.13,0,0,1-13.69,9.09,50,50,0,0,1-10.22,3,1.46,1.46,0,0,1-1.87-.79L47,57.5A54.24,54.24,0,0,0,73.92,43.92Z"/><path class="cls-2" d="M64.93,34.22l-1.54-4.34c-.74-2.11-1.48-4.23-2.23-6.34-.32-.92-.65-1.84-.95-2.77A1.31,1.31,0,0,1,61,19.05,1.41,1.41,0,0,1,62.7,20q1.84,5.22,3.7,10.45c.34,1,.7,2,1,3a1.4,1.4,0,0,1-.67,1.83C66.06,35.53,65.4,35.21,64.93,34.22Z"/><path class="cls-2" d="M69,38.48a1.31,1.31,0,1,1-1.74-.6A1.38,1.38,0,0,1,69,38.48Z"/></svg>