<svg id="Camada_1" data-name="Camada 1" xmlns="http://www.w3.org/2000/svg" viewBox="0 0 200 200"><defs><style>.cls-1{fill:#fd0be5;}.cls-2{fill:#fefefe;}.cls-3{fill:#fff;}</style></defs><path class="cls-1" d="M96.24,142.84c.88-5.24,3.49-7.43,8.74-7.43H167c5.44,0,8.38,2.93,8.38,8.38v47.38c0,2.81-.72,3.52-3.58,3.52H30.76c-2.84,0-3.55-.71-3.55-3.54v-34c0-4.34,1.94-6.89,6.17-8,9.81-2.64,19.61-5.28,29.44-7.84,1.19-.31,1.54-.76,1.47-1.94a51.07,51.07,0,0,1,0-5.25,1.58,1.58,0,0,0-1.08-1.73,31.38,31.38,0,0,1-17.84-22.23,3.09,3.09,0,0,0-2.44-2.69,12.1,12.1,0,0,1-6.85-17.21,8.91,8.91,0,0,0,1-4.51,39.49,39.49,0,0,1,78.44-6.22,16.9,16.9,0,0,0,5.09,9.94c2.28,2.15,4.46,4.41,6.66,6.65,1.91,1.92,1.55,3.73-1,4.75q-8.41,3.39-16.85,6.73a1.9,1.9,0,0,0-1.39,1.58,31.6,31.6,0,0,1-17.85,23.12,1.89,1.89,0,0,0-1.3,2.06,51.19,51.19,0,0,1,0,5.4,1.2,1.2,0,0,0,1.1,1.46C92.07,141.72,94.1,142.28,96.24,142.84Z"/><path class="cls-2" d="M75.81,150.2a7.24,7.24,0,0,0,8-5.74c.64-3.25.14-6.57.26-10a31.64,31.64,0,0,1-14.83,0c0,2.84,0,5.61,0,8.37A7.44,7.44,0,0,0,75.81,150.2Z"/><path class="cls-2" d="M95.29,184.79c-3.71.05-7.41,0-11.12,0s-7.61,0-11.42,0c-.38,0-.9-.31-1.09.44-.7,2.69.63,4.48,3.4,4.48h17.6c3.81,0,3.78,0,3.73-3.86C96.38,185,96.16,184.78,95.29,184.79Z"/><path class="cls-2" d="M59.09,170.31c-.92-1-3.09-.19-4.81-.36-1.52.22-3.69-.69-4.61.35s-.15,3-.25,4.62a1.75,1.75,0,0,0,1,1.83c1.37.77,2.58,2.42,4,2.34s2.56-1.55,3.88-2.33a1.79,1.79,0,0,0,1-1.84C59.24,173.34,59.88,171.2,59.09,170.31Z"/><path class="cls-2" d="M76.58,160.11c-2.44,0-2.44,0-2.44,2.5s0,2.44,2.5,2.44,2.44,0,2.44-2.35C79.08,160.11,79.08,160.11,76.58,160.11Z"/><path class="cls-2" d="M76.57,170c-2.43,0-2.43,0-2.43,2.36,0,2.58,0,2.58,2.51,2.58s2.43,0,2.43-2.36C79.08,170,79.08,170,76.57,170Z"/><path class="cls-2" d="M39.57,96.16c.09,3.08,2.24,5.93,4.86,6.44V89.13A7,7,0,0,0,39.57,96.16Z"/><path class="cls-2" d="M75.51,130.46a27.32,27.32,0,0,0,28.29-29.14c0-.69-.21-1-.92-1.1-3.49-.59-7-1.35-10.46-1.84C82.79,97,75,92.73,69.07,84.9c-3.06-4.06-6.34-8-9.63-12.07-3.29,4.6-6.45,9-9.63,13.44a2.26,2.26,0,0,0-.38,1.44c0,5.51-.06,11,0,16.51C49.71,118.19,61.55,130.07,75.51,130.46Zm8.39-17c1.39-.92,3.19-.25,4.8-.26.46,0,.22.59.15.89a6.75,6.75,0,0,1-3.45,4.32,17.7,17.7,0,0,1-8.87,2.15,17,17,0,0,1-9.23-2.48,6.63,6.63,0,0,1-3-4c-.17-.71,0-1,.79-1,1.08.07,2.16,0,3.24,0a1.53,1.53,0,0,1,1,.26A13.2,13.2,0,0,0,83.9,113.51ZM54.84,95.81A7.48,7.48,0,0,1,62.61,91a7.57,7.57,0,0,1,6.53,6.26c.14.85,0,1.25-1,1.13a13.19,13.19,0,0,0-1.54,0c-1.22,0-2.3.22-3-1.45s-3.29-1.35-4,.33a1.57,1.57,0,0,1-1.91,1.13c-.41,0-.82,0-1.23,0C54.07,98.36,54,98.19,54.84,95.81Z"/><path class="cls-2" d="M170.46,143.5c0-2.32-.84-3.16-3.15-3.16H104.52c-2.41,0-3.22.82-3.22,3.25q0,22.36,0,44.74c0,1.11.21,1.44,1.4,1.44,11.06-.06,22.12,0,33.17,0s22.12,0,33.18,0c1,0,1.48-.08,1.48-1.35C170.44,173.43,170.46,158.47,170.46,143.5Zm-59.19,41.29c-2.56,0-2.56,0-2.56-2.53s0-2.41,2.38-2.41c2.56,0,2.56,0,2.56,2.54S113.65,184.79,111.27,184.79Zm10,0c-2.65,0-2.65,0-2.65-2.6,0-2.34,0-2.34,2.29-2.34,2.65,0,2.65,0,2.65,2.6C123.53,184.79,123.53,184.79,121.24,184.79Zm9.86,0c-2.63,0-2.63,0-2.63-2.62,0-2.32,0-2.32,2.31-2.32,2.63,0,2.63,0,2.63,2.62C133.41,184.79,133.41,184.79,131.1,184.79ZM135.72,170a4.94,4.94,0,1,1,5.09-4.86A5,5,0,0,1,135.72,170Zm5,14.82c-2.4,0-2.4,0-2.4-2.39,0-2.55,0-2.55,2.54-2.55s2.4,0,2.4,2.39C143.29,184.79,143.29,184.79,140.75,184.79Zm10,0c-2.51,0-2.51,0-2.51-2.58,0-2.36,0-2.36,2.43-2.36s2.51,0,2.51,2.59C153.17,184.79,153.17,184.79,150.74,184.79Zm9.87,0c-2.5,0-2.5,0-2.5-2.43s0-2.51,2.59-2.51c2.35,0,2.35,0,2.35,2.44S163.05,184.79,160.61,184.79Z"/><path class="cls-1" d="M88.6,36.39a17.11,17.11,0,0,0-3.2-.23,42.52,42.52,0,0,0-9.31,1.28c-.43.11-.63.06-.79-.42-1.16-3.38-2.36-6.75-3.55-10.13q-3.06-8.7-6.14-17.4c-.25-.72-.48-1.45-.78-2.15a3.46,3.46,0,0,0-3.17-2,16.35,16.35,0,0,0-5.57.52,61.1,61.1,0,0,0-11.88,4.3,71.06,71.06,0,0,0-14.29,8.61,18.07,18.07,0,0,0-4.56,4.83c-.71,1.19-1.13,2.45-.34,3.76.56.94,1.21,1.82,1.82,2.72l7.85,11.6c2.61,3.87,5.2,7.75,7.84,11.6.38.56.3.79-.17,1.18a38.86,38.86,0,0,0-6.42,6.59c-1.76,2.39-3.28,4.88-2.57,8l.71,1.41a5.62,5.62,0,0,0,3.36,2.22,18.35,18.35,0,0,0,6.56.47,50.76,50.76,0,0,0,10.15-2A87.25,87.25,0,0,0,67.4,66.13c1.77-.85,3.52-1.74,5.23-2.73,1.47-.85,3-1.68,4.4-2.59a67.88,67.88,0,0,0,9.65-7.21,28.29,28.29,0,0,0,6.75-8.21,6.36,6.36,0,0,0,.68-5.09L93.46,39A7.24,7.24,0,0,0,88.6,36.39Z"/><path class="cls-3" d="M74.45,42.46c.45,1.27.94,2.62,1.4,4a1.31,1.31,0,0,1-.41,1.43A47.13,47.13,0,0,1,61.75,57a50,50,0,0,1-10.22,3,1.45,1.45,0,0,1-1.86-.79L47.51,56A54.3,54.3,0,0,0,74.45,42.46Z"/><path class="cls-3" d="M65.46,32.75l-1.54-4.34L61.7,22.07c-.33-.92-.66-1.84-1-2.77a1.33,1.33,0,0,1,.78-1.72,1.41,1.41,0,0,1,1.71.94q1.84,5.24,3.7,10.46c.35,1,.7,2,1,2.95a1.39,1.39,0,0,1-.67,1.83C66.59,34.06,65.93,33.74,65.46,32.75Z"/><path class="cls-3" d="M69.52,37a1.31,1.31,0,1,1-1.75-.61A1.38,1.38,0,0,1,69.52,37Z"/></svg>