<svg id="Camada_1" data-name="Camada 1" xmlns="http://www.w3.org/2000/svg" viewBox="0 0 200 200"><defs><style>.cls-1{fill:#24b821;}.cls-2{fill:#fdfdfd;}.cls-3{fill:#fefefe;}.cls-4{fill:#fff;}</style></defs><path class="cls-1" d="M127,132.73h27.54c5.14,0,10.29,0,15.43,0a7.4,7.4,0,0,1,7.78,7.74q0,24.24,0,48.47c0,2.2-.88,3.06-3.1,3.06H35.13c-2.21,0-3.07-.87-3.07-3.08q0-17.44,0-34.89a7.35,7.35,0,0,1,5.74-7.43c10-2.67,19.92-5.35,29.89-8,1.08-.29,1.51-.64,1.44-1.81-.11-1.84,0-3.7,0-5.55,0-.79-1.64-2.24-2.36-2.09-.4.08-.33.45-.41.73-2,7-8.87,9.82-15,6.06a1.14,1.14,0,0,0-1.47,0,9.86,9.86,0,0,1-15.29-8.5,1.71,1.71,0,0,0-.8-1.62,9.67,9.67,0,0,1,.08-16,1.73,1.73,0,0,0,.71-1.68,9.79,9.79,0,0,1,5.15-8.87c.38-.22,1.17-.16,1-.94a1.83,1.83,0,0,0-1.14-1.31,12.28,12.28,0,0,1-2.77-20.9,1.63,1.63,0,0,0,.7-2,12.22,12.22,0,0,1,8.28-15,2.17,2.17,0,0,0,1.7-1.62,12.22,12.22,0,0,1,15-8.38,1.5,1.5,0,0,0,1.9-.62,12.08,12.08,0,0,1,16.15-2.88,1.44,1.44,0,0,0,1.86,0,12.07,12.07,0,0,1,16.25,3,1.32,1.32,0,0,0,1.65.56,12.22,12.22,0,0,1,15.25,8.46A1.86,1.86,0,0,0,117,59.15a12.24,12.24,0,0,1,8.4,15.16,1.4,1.4,0,0,0,.62,1.77A12.26,12.26,0,0,1,123.68,97c-.48.23-1.05.33-1.28,1s-.32.85.35,1.2a9.72,9.72,0,0,1,5.6,9.5c0,.65.32.88.74,1.2,5.69,4.24,5.67,11.77,0,16.1-.44.33-.74.59-.69,1.22A10.17,10.17,0,0,1,127,132.73Z"/><path class="cls-2" d="M93.81,134.27c0-1.07,0-2.15,0-3.23a1,1,0,0,1,.62-1.08c1.79-1,1.8-1,2.42.93a9.3,9.3,0,0,0,2.75,4.2c.53.46.67.77.21,1.36a2.43,2.43,0,0,0-.57,1.24c-.15,1.77-1,1.87-2.48,1.37-2.91-.95-2.94-.85-2.94-3.86Z"/><path class="cls-3" d="M97.65,182.11c-3.71,0-7.41,0-11.12,0s-7.61,0-11.42,0c-.38,0-.9-.3-1.08.46-.66,2.75.63,4.46,3.42,4.46h17.6c3.8,0,3.77,0,3.72-3.88C98.76,182.3,98.5,182.1,97.65,182.11Z"/><path class="cls-3" d="M74.19,139.7c2.35,4.18,4.76,8.34,7.27,12.72l7.27-12.71a1.34,1.34,0,0,0,.13-.59c0-2.41,0-4.81,0-7.29a31.46,31.46,0,0,1-14.82,0c0,2,0,3.79,0,5.58A4.76,4.76,0,0,0,74.19,139.7Z"/><path class="cls-3" d="M69.59,143.2c-5.48,1.49-11,3-16.84,4.52l23.68,5.89c-2-3.56-3.85-6.7-5.63-9.87A.91.91,0,0,0,69.59,143.2Z"/><path class="cls-3" d="M98.75,145.41c.07-.56-.2-.81-.74-.95-1.54-.38-3.07-.82-4.61-1.24-.52-.14-.91-.17-1.25.45-1.79,3.22-3.65,6.4-5.67,9.93,2.81-.69,5.28-1.29,7.75-1.92,1.48-.37,3.58-.35,4.26-1.31s.23-3.06.26-4.65A1.61,1.61,0,0,1,98.75,145.41Z"/><path class="cls-3" d="M44.4,93.46c0,2.56,2.23,6.15,4.88,6.46V86.45A7,7,0,0,0,44.4,93.46Z"/><path class="cls-3" d="M113.57,86.44V100A7,7,0,0,0,118.5,93,6.89,6.89,0,0,0,113.57,86.44Z"/><path class="cls-3" d="M107.38,82.28Q90.27,77,73.18,71.57a2.44,2.44,0,0,0-2.28.26q-7.82,4.94-15.68,9.78a1.71,1.71,0,0,0-1,1.7c.06,3.14,0,6.28,0,10.07.14,3.51-.33,7.69.38,11.82a27.17,27.17,0,0,0,54-4.43c0-5.61,0-11.21,0-16.82C108.66,82.94,108.34,82.58,107.38,82.28ZM73,98.16a11.29,11.29,0,0,0-1.54,0c-1.21,0-2.29.24-3-1.45s-3.35-1.33-4,.46c-.37,1-.89,1-1.68,1-.52,0-1,0-1.55,0-2.29,0-2.35-.08-1.66-2.26A7.43,7.43,0,0,1,74,97C74.12,97.86,74,98.29,73,98.16Zm15.67,16.37a7.39,7.39,0,0,1-14.39.25c-.48-1.81-.48-1.81,1.44-1.81h1.08a2.29,2.29,0,0,1,2.8,1.48c.72,1.6,3.26,1.28,4-.4a1.48,1.48,0,0,1,1.78-1.1,8.59,8.59,0,0,0,2.15,0C89,112.74,89,113.45,88.69,114.53Zm14-16.37a11.29,11.29,0,0,0-1.54,0c-1.22,0-2.27.2-3-1.45s-3.36-1.29-4.11.6a1.1,1.1,0,0,1-1.3.86,22,22,0,0,0-2.93,0c-1,.09-1-.39-.87-1.09a7.44,7.44,0,0,1,14.71,0C103.77,97.89,103.6,98.28,102.65,98.16Z"/><path class="cls-3" d="M172.84,140.83c0-2.32-.84-3.16-3.14-3.16H106.9c-2.41,0-3.22.82-3.22,3.25q0,22.37,0,44.74c0,1.11.22,1.44,1.41,1.43,11-.05,22.11,0,33.17,0s22.11,0,33.17,0c1,0,1.49-.08,1.48-1.35C172.82,170.76,172.85,155.8,172.84,140.83Zm-59.19,41.29c-2.56,0-2.56,0-2.56-2.53s0-2.41,2.38-2.41c2.56,0,2.56,0,2.56,2.54S116,182.12,113.65,182.12Zm10,0c-2.65,0-2.65,0-2.65-2.6,0-2.34,0-2.34,2.3-2.34,2.64,0,2.64,0,2.64,2.6C125.91,182.12,125.91,182.12,123.62,182.12Zm9.86,0c-2.63,0-2.63,0-2.63-2.62,0-2.32,0-2.32,2.31-2.32,2.63,0,2.63,0,2.63,2.62C135.79,182.12,135.79,182.12,133.48,182.12Zm4.63-14.82a4.94,4.94,0,1,1,5.09-4.86A5,5,0,0,1,138.11,167.3Zm5,14.82c-2.4,0-2.4,0-2.4-2.39,0-2.55,0-2.55,2.55-2.55,2.39,0,2.39,0,2.39,2.39C145.67,182.12,145.67,182.12,143.13,182.12Zm10,0c-2.52,0-2.52,0-2.52-2.58,0-2.36,0-2.36,2.43-2.36s2.51,0,2.51,2.59C155.55,182.12,155.55,182.12,153.13,182.12Zm9.87,0c-2.51,0-2.51,0-2.51-2.43s0-2.51,2.6-2.51c2.34,0,2.34,0,2.34,2.44S165.43,182.12,163,182.12Z"/><path class="cls-1" d="M86.22,39.07a19.07,19.07,0,0,0-3.2-.23,42.37,42.37,0,0,0-9.31,1.29c-.44.1-.63,0-.8-.42-1.16-3.38-2.35-6.76-3.54-10.13q-3.06-8.7-6.14-17.4c-.26-.72-.48-1.46-.78-2.16a3.49,3.49,0,0,0-3.17-2,16.41,16.41,0,0,0-5.58.53,61.55,61.55,0,0,0-11.88,4.29A71.38,71.38,0,0,0,27.53,21.5,18.19,18.19,0,0,0,23,26.32a3.47,3.47,0,0,0-.34,3.77c.56.93,1.22,1.81,1.83,2.71L32.3,44.4c2.62,3.87,5.2,7.76,7.85,11.61.38.55.29.78-.17,1.18a38.13,38.13,0,0,0-6.42,6.59c-1.76,2.38-3.28,4.87-2.57,8l.71,1.4a5.51,5.51,0,0,0,3.35,2.22,18.4,18.4,0,0,0,6.57.47,50.9,50.9,0,0,0,10.15-2A85.71,85.71,0,0,0,65,68.81c1.78-.84,3.53-1.74,5.23-2.72,1.48-.85,3-1.68,4.41-2.59a67.88,67.88,0,0,0,9.65-7.21,28.58,28.58,0,0,0,6.75-8.21,6.43,6.43,0,0,0,.68-5.1l-.65-1.29A7.3,7.3,0,0,0,86.22,39.07Z"/><path class="cls-4" d="M72.07,45.14c.45,1.27.94,2.63,1.4,4a1.3,1.3,0,0,1-.42,1.42,46.78,46.78,0,0,1-13.68,9.1,50.64,50.64,0,0,1-10.22,3,1.46,1.46,0,0,1-1.87-.79c-.73-1.08-1.47-2.16-2.15-3.18A54.18,54.18,0,0,0,72.07,45.14Z"/><path class="cls-4" d="M63.07,35.44c-.47-1.35-1-2.85-1.53-4.34q-1.12-3.18-2.23-6.34c-.32-.93-.66-1.85-1-2.78a1.3,1.3,0,0,1,.78-1.71,1.4,1.4,0,0,1,1.71.93l3.69,10.46c.35,1,.71,2,1,2.95a1.41,1.41,0,0,1-.67,1.84C64.21,36.75,63.55,36.43,63.07,35.44Z"/><path class="cls-4" d="M67.13,39.7a1.31,1.31,0,1,1-1.74-.61A1.38,1.38,0,0,1,67.13,39.7Z"/></svg>