<svg id="Camada_1" data-name="Camada 1" xmlns="http://www.w3.org/2000/svg" viewBox="0 0 200 200"><defs><style>.cls-1{fill:#e6332a;}.cls-2{fill:#fefefe;}.cls-3{fill:#fff;}</style></defs><path class="cls-1" d="M102,195.1H31.48c-2.92,0-3.6-.68-3.6-3.64v-33.8c0-4.37,1.9-6.92,6.12-8,1-.27,1.32-.7,1.32-1.77,0-19.6-.18-39.2,0-58.8.16-16.15,7.35-28.56,21.32-36.67,25.07-14.56,57.51,1.06,62,29.69a49.5,49.5,0,0,1,.58,7.69c0,14.86,0,29.73,0,44.6,0,1.22.32,1.49,1.51,1.49q23.53-.06,47.07,0c5.24,0,8.26,3,8.26,8.19V191.7c0,2.63-.77,3.4-3.38,3.4Z"/><path class="cls-2" d="M69.69,145.62c2.32,3.26,4.68,6.5,7,9.79.66,1,.92.5,1.35-.12q2.88-4.08,5.8-8.15c.8-1.12,2-2.12.94-3.73-.19-.3,0-.8,0-1.22v-7.27A31.66,31.66,0,0,1,70,135c0,.28-.06.43-.08.58-.31,3.08.65,6.24-.55,9.28C69.25,145,69.52,145.38,69.69,145.62Z"/><path class="cls-2" d="M96,185.2c-3.71.05-7.41,0-11.12,0s-7.61,0-11.42,0c-.37,0-.9-.31-1.09.44-.7,2.7.63,4.48,3.4,4.48h17.6c3.81,0,3.78,0,3.73-3.85C97.05,185.44,96.83,185.19,96,185.2Z"/><path class="cls-2" d="M73,160.23c.61-.35.6-.63.21-1.17Q69,153.2,64.82,147.29c-.41-.57-.77-.58-1.41-.43-3.41.84-3.45.82-3.41,4.24,0,1.47-.65,3.42.29,4.26s2.73.2,4.16.22c2,0,2.92.91,3,2.9,0,1.59,0,3.18,0,5.07C69.42,162.35,71.2,161.26,73,160.23Z"/><path class="cls-2" d="M90.86,146.74a.89.89,0,0,0-1,.43q-4.29,6-8.6,12c-.32.44-.3.68.17.95,1.85,1.08,3.69,2.18,5.74,3.39,0-1.82,0-3.36,0-4.9,0-2.14.87-3,3-3,1.43,0,3.36.5,4.17-.22s.26-2.8.28-4.27C94.6,147.33,94.57,147.35,90.86,146.74Z"/><path class="cls-2" d="M40.24,96.66a6.94,6.94,0,0,0,4.89,6.39c0-.26,0-.5,0-.74V89.44A7.17,7.17,0,0,0,40.24,96.66Z"/><path class="cls-2" d="M114.3,95.57c-.28-2.94-2.42-5.57-4.91-6v13.55A7.31,7.31,0,0,0,114.3,95.57Z"/><path class="cls-2" d="M104.47,88.85c0-.86-.51-1-1.07-1.21L76.54,76.57c-1.38-.57-3.27-.78-4-1.81s-.22-2.87-.23-4.36c0-3.82,0-3.77-3.82-3.77-1,0-1.17.36-1.14,1.23.06,1.85,0,3.7,0,5.56,0,.43.13.92-.62,1a12.09,12.09,0,0,0-4.32,1.37V70.48c0-3.94,0-3.9-3.9-3.85-.94,0-1.07.34-1.06,1.15,0,3.71,0,7.41,0,11.11a2.51,2.51,0,0,1-.84,2c-1.92,1.86-3.77,3.79-5.7,5.64a2.62,2.62,0,0,0-.91,2.13c0,4.48,0,9,0,13.42a32.49,32.49,0,0,0,.47,6.61c3,14.52,15.65,23.64,30.46,21.9,11.71-1.38,21.8-11.42,23.12-23.1C104.85,101.3,104.28,95.07,104.47,88.85Zm-35.65,12.4a18.39,18.39,0,0,0-1.86,0,2.19,2.19,0,0,1-2.65-1.47c-.7-1.6-3.3-1.32-4,.37-.42,1.07-1,1.17-1.92,1.11-.41,0-.82,0-1.23,0-2.43,0-2.54-.15-1.74-2.43a7.43,7.43,0,0,1,14.37,1.33C70,101,69.72,101.36,68.82,101.25Zm15.63,16.54a7.35,7.35,0,0,1-7.14,5.68,7.46,7.46,0,0,1-7.25-5.76c-.29-1.14-.3-1.9,1.22-1.66a6.48,6.48,0,0,0,1.08,0c1.19,0,2.31-.31,3,1.39s3.33,1.43,4-.33a1.47,1.47,0,0,1,1.8-1.07c.61.06,1.23,0,1.85,0C84.89,116.06,84.89,116.06,84.45,117.79Zm13.38-16.55H96.68a2.25,2.25,0,0,1-2.74-1.48c-.7-1.6-3.3-1.3-4,.39-.42,1.08-1,1.14-1.93,1.1a11.88,11.88,0,0,0-2.15,0c-1.06.12-1.32-.25-1.12-1.28a7.54,7.54,0,0,1,7-6.14,7.35,7.35,0,0,1,7.52,5.57C99.73,101.24,99.73,101.24,97.83,101.24Z"/><path class="cls-2" d="M171.13,143.93c0-2.32-.84-3.17-3.15-3.17H105.19c-2.41,0-3.22.82-3.22,3.25q0,22.37,0,44.74c0,1.12.22,1.45,1.41,1.44,11.05-.05,22.11,0,33.17,0s22.11,0,33.17,0c1,0,1.49-.08,1.48-1.36C171.11,173.86,171.14,158.89,171.13,143.93Zm-59.19,41.29c-2.56,0-2.56,0-2.56-2.53s0-2.41,2.38-2.41c2.56,0,2.56,0,2.56,2.53S114.32,185.22,111.94,185.22Zm10,0c-2.65,0-2.65,0-2.65-2.6,0-2.34,0-2.34,2.29-2.34,2.65,0,2.65,0,2.65,2.6C124.2,185.22,124.2,185.22,121.91,185.22Zm9.86,0c-2.63,0-2.63,0-2.63-2.62,0-2.32,0-2.32,2.31-2.32,2.63,0,2.63,0,2.63,2.62C134.08,185.22,134.08,185.22,131.77,185.22Zm4.62-14.83a4.94,4.94,0,1,1,5.1-4.85A5,5,0,0,1,136.39,170.39Zm5,14.83c-2.4,0-2.4,0-2.4-2.39,0-2.55,0-2.55,2.55-2.55,2.39,0,2.39,0,2.39,2.39C144,185.22,144,185.22,141.42,185.22Zm10,0c-2.52,0-2.52,0-2.52-2.58,0-2.36,0-2.36,2.43-2.36s2.51,0,2.51,2.58C153.84,185.22,153.84,185.22,151.42,185.22Zm9.87,0c-2.51,0-2.51,0-2.51-2.44s0-2.5,2.6-2.5c2.34,0,2.34,0,2.34,2.44S163.72,185.22,161.29,185.22Z"/><path class="cls-1" d="M87.92,36a17.9,17.9,0,0,0-3.19-.24A42.37,42.37,0,0,0,75.42,37c-.44.1-.64,0-.8-.42-1.16-3.38-2.35-6.76-3.54-10.13Q68,17.78,64.94,9.08c-.26-.72-.49-1.45-.79-2.15A3.46,3.46,0,0,0,61,5a16.16,16.16,0,0,0-5.58.52A61.55,61.55,0,0,0,43.53,9.78,71.1,71.1,0,0,0,29.24,18.4a18.19,18.19,0,0,0-4.56,4.82c-.71,1.19-1.13,2.46-.34,3.77.56.93,1.22,1.81,1.83,2.72L34,41.31c2.61,3.87,5.2,7.75,7.85,11.6.38.55.29.78-.18,1.18a38.44,38.44,0,0,0-6.41,6.59c-1.76,2.38-3.28,4.87-2.57,8.05l.71,1.41a5.54,5.54,0,0,0,3.35,2.21,18.4,18.4,0,0,0,6.57.47,50.88,50.88,0,0,0,10.15-2,85.75,85.75,0,0,0,13.24-5.14C68.49,64.87,70.24,64,72,63c1.48-.85,3-1.68,4.41-2.59A68.45,68.45,0,0,0,86,53.19,28.45,28.45,0,0,0,92.76,45a6.42,6.42,0,0,0,.68-5.1l-.65-1.28A7.26,7.26,0,0,0,87.92,36Z"/><path class="cls-3" d="M73.78,42c.45,1.28.94,2.63,1.4,4a1.3,1.3,0,0,1-.42,1.42,46.78,46.78,0,0,1-13.68,9.1,50,50,0,0,1-10.22,3A1.46,1.46,0,0,1,49,58.79l-2.15-3.17A54.28,54.28,0,0,0,73.78,42Z"/><path class="cls-3" d="M64.78,32.34c-.47-1.35-1-2.84-1.53-4.34-.75-2.11-1.49-4.23-2.23-6.34-.32-.92-.66-1.84-1-2.78a1.3,1.3,0,0,1,.78-1.71,1.42,1.42,0,0,1,1.71.94l3.69,10.45c.35,1,.71,2,1,3a1.39,1.39,0,0,1-.66,1.83C65.92,33.65,65.25,33.33,64.78,32.34Z"/><path class="cls-3" d="M68.84,36.6A1.31,1.31,0,1,1,67.1,36,1.39,1.39,0,0,1,68.84,36.6Z"/></svg>